<?xml version="1.0" encoding="UTF-8" standalone="no"?>
<!DOCTYPE svg PUBLIC "-//W3C//DTD SVG 1.1//EN"
 "http://www.w3.org/Graphics/SVG/1.1/DTD/svg11.dtd">
<!-- Generated by graphviz version 2.30.1 (20180420.1509)
 -->
<!-- Title: %3 Pages: 1 -->
<svg width="684pt" height="1342pt"
 viewBox="0.00 0.00 684.00 1342.00" xmlns="http://www.w3.org/2000/svg" xmlns:xlink="http://www.w3.org/1999/xlink">
<g id="graph0" class="graph" transform="scale(1 1) rotate(0) translate(4 1338)">
<title>%3</title>
<polygon fill="white" stroke="white" points="-4,5 -4,-1338 681,-1338 681,5 -4,5"/>
<!-- 188927 -->
<g id="node1" class="node"><title>188927</title>
<ellipse fill="lightblue" stroke="lightblue" cx="449" cy="-188" rx="86.4614" ry="60.2083"/>
<text text-anchor="middle" x="449" y="-218.5" font-family="Times,serif" font-size="10.00">code:printWLine ( data )</text>
<text text-anchor="middle" x="449" y="-207.5" font-family="Times,serif" font-size="10.00">isCFGNode:True</text>
<text text-anchor="middle" x="449" y="-196.5" font-family="Times,serif" font-size="10.00">childNum:0</text>
<text text-anchor="middle" x="449" y="-185.5" font-family="Times,serif" font-size="10.00">location:13:8:248:264</text>
<text text-anchor="middle" x="449" y="-174.5" font-family="Times,serif" font-size="10.00">id:188927</text>
<text text-anchor="middle" x="449" y="-163.5" font-family="Times,serif" font-size="10.00">type:ExpressionStatement</text>
<text text-anchor="middle" x="449" y="-152.5" font-family="Times,serif" font-size="10.00">functionId:188919</text>
</g>
<!-- 188966 -->
<g id="node2" class="node"><title>188966</title>
<ellipse fill="lightblue" stroke="lightblue" cx="360" cy="-45" rx="68.3838" ry="44.5955"/>
<text text-anchor="middle" x="360" y="-64.5" font-family="Times,serif" font-size="10.00">id:188966</text>
<text text-anchor="middle" x="360" y="-53.5" font-family="Times,serif" font-size="10.00">code:EXIT</text>
<text text-anchor="middle" x="360" y="-42.5" font-family="Times,serif" font-size="10.00">type:CFGExitNode</text>
<text text-anchor="middle" x="360" y="-31.5" font-family="Times,serif" font-size="10.00">functionId:188919</text>
<text text-anchor="middle" x="360" y="-20.5" font-family="Times,serif" font-size="10.00">isCFGNode:True</text>
</g>
<!-- 188927&#45;&gt;188966 -->
<g id="edge1" class="edge"><title>188927&#45;&gt;188966</title>
<path fill="none" stroke="lightblue" d="M414.59,-132.486C406.797,-120.139 398.567,-107.101 390.928,-94.9982"/>
<polygon fill="lightblue" stroke="lightblue" points="393.782,-92.9621 385.484,-86.374 387.862,-96.6985 393.782,-92.9621"/>
</g>
<!-- 188934 -->
<g id="node3" class="node"><title>188934</title>
<ellipse fill="lightblue" stroke="lightblue" cx="338" cy="-356" rx="73.3085" ry="60.2083"/>
<text text-anchor="middle" x="338" y="-386.5" font-family="Times,serif" font-size="10.00">code:line != NULL</text>
<text text-anchor="middle" x="338" y="-375.5" font-family="Times,serif" font-size="10.00">isCFGNode:True</text>
<text text-anchor="middle" x="338" y="-364.5" font-family="Times,serif" font-size="10.00">childNum:0</text>
<text text-anchor="middle" x="338" y="-353.5" font-family="Times,serif" font-size="10.00">location:8:5:211:222</text>
<text text-anchor="middle" x="338" y="-342.5" font-family="Times,serif" font-size="10.00">id:188934</text>
<text text-anchor="middle" x="338" y="-331.5" font-family="Times,serif" font-size="10.00">type:Condition</text>
<text text-anchor="middle" x="338" y="-320.5" font-family="Times,serif" font-size="10.00">functionId:188919</text>
</g>
<!-- 188934&#45;&gt;188966 -->
<g id="edge2" class="edge"><title>188934&#45;&gt;188966</title>
<path fill="none" stroke="lightblue" d="M329.789,-296.235C324.884,-250.14 321.296,-184.542 331,-128 332.705,-118.066 335.492,-107.737 338.682,-97.8955"/>
<polygon fill="lightblue" stroke="lightblue" points="342.057,-98.843 341.98,-88.2485 335.433,-96.5784 342.057,-98.843"/>
<text text-anchor="middle" x="342" y="-185.5" font-family="Times,serif" font-size="10.00">False</text>
</g>
<!-- 188934&#45;&gt;188927 -->
<g id="edge3" class="edge"><title>188934&#45;&gt;188927</title>
<path fill="none" stroke="lightblue" d="M372.817,-302.932C383.699,-286.657 395.82,-268.531 407.134,-251.61"/>
<polygon fill="lightblue" stroke="lightblue" points="410.318,-253.146 412.967,-242.887 404.499,-249.255 410.318,-253.146"/>
<text text-anchor="middle" x="405.5" y="-269.5" font-family="Times,serif" font-size="10.00">True</text>
</g>
<!-- 188938 -->
<g id="node4" class="node"><title>188938</title>
<ellipse fill="lightblue" stroke="lightblue" cx="338" cy="-514" rx="86.4614" ry="60.2083"/>
<text text-anchor="middle" x="338" y="-544.5" font-family="Times,serif" font-size="10.00">code:printWLine ( data )</text>
<text text-anchor="middle" x="338" y="-533.5" font-family="Times,serif" font-size="10.00">isCFGNode:True</text>
<text text-anchor="middle" x="338" y="-522.5" font-family="Times,serif" font-size="10.00">childNum:4</text>
<text text-anchor="middle" x="338" y="-511.5" font-family="Times,serif" font-size="10.00">location:7:0:185:204</text>
<text text-anchor="middle" x="338" y="-500.5" font-family="Times,serif" font-size="10.00">id:188938</text>
<text text-anchor="middle" x="338" y="-489.5" font-family="Times,serif" font-size="10.00">type:ExpressionStatement</text>
<text text-anchor="middle" x="338" y="-478.5" font-family="Times,serif" font-size="10.00">functionId:188919</text>
</g>
<!-- 188938&#45;&gt;188934 -->
<g id="edge4" class="edge"><title>188938&#45;&gt;188934</title>
<path fill="none" stroke="lightblue" d="M338,-453.578C338,-444.695 338,-435.47 338,-426.402"/>
<polygon fill="lightblue" stroke="lightblue" points="341.5,-426.257 338,-416.257 334.5,-426.257 341.5,-426.257"/>
</g>
<!-- 188945 -->
<g id="node5" class="node"><title>188945</title>
<ellipse fill="lightblue" stroke="lightblue" cx="338" cy="-672" rx="338.556" ry="60.2083"/>
<text text-anchor="middle" x="338" y="-702.5" font-family="Times,serif" font-size="10.00">code:CWE121_Stack_Based_Buffer_Overflow__CWE805_wchar_t_declare_snprintf_41_goodG2BSink ( data )</text>
<text text-anchor="middle" x="338" y="-691.5" font-family="Times,serif" font-size="10.00">isCFGNode:True</text>
<text text-anchor="middle" x="338" y="-680.5" font-family="Times,serif" font-size="10.00">childNum:3</text>
<text text-anchor="middle" x="338" y="-669.5" font-family="Times,serif" font-size="10.00">location:6:0:92:183</text>
<text text-anchor="middle" x="338" y="-658.5" font-family="Times,serif" font-size="10.00">id:188945</text>
<text text-anchor="middle" x="338" y="-647.5" font-family="Times,serif" font-size="10.00">type:ExpressionStatement</text>
<text text-anchor="middle" x="338" y="-636.5" font-family="Times,serif" font-size="10.00">functionId:188919</text>
</g>
<!-- 188945&#45;&gt;188938 -->
<g id="edge5" class="edge"><title>188945&#45;&gt;188938</title>
<path fill="none" stroke="lightblue" d="M338,-611.578C338,-602.695 338,-593.47 338,-584.402"/>
<polygon fill="lightblue" stroke="lightblue" points="341.5,-584.257 338,-574.257 334.5,-584.257 341.5,-584.257"/>
</g>
<!-- 188952 -->
<g id="node6" class="node"><title>188952</title>
<ellipse fill="lightblue" stroke="lightblue" cx="338" cy="-830" rx="94.0678" ry="60.2083"/>
<text text-anchor="middle" x="338" y="-860.5" font-family="Times,serif" font-size="10.00">code:data = dataGoodBuffer</text>
<text text-anchor="middle" x="338" y="-849.5" font-family="Times,serif" font-size="10.00">isCFGNode:True</text>
<text text-anchor="middle" x="338" y="-838.5" font-family="Times,serif" font-size="10.00">childNum:2</text>
<text text-anchor="middle" x="338" y="-827.5" font-family="Times,serif" font-size="10.00">location:5:0:69:90</text>
<text text-anchor="middle" x="338" y="-816.5" font-family="Times,serif" font-size="10.00">id:188952</text>
<text text-anchor="middle" x="338" y="-805.5" font-family="Times,serif" font-size="10.00">type:ExpressionStatement</text>
<text text-anchor="middle" x="338" y="-794.5" font-family="Times,serif" font-size="10.00">functionId:188919</text>
</g>
<!-- 188952&#45;&gt;188945 -->
<g id="edge6" class="edge"><title>188952&#45;&gt;188945</title>
<path fill="none" stroke="lightblue" d="M338,-769.578C338,-760.695 338,-751.47 338,-742.402"/>
<polygon fill="lightblue" stroke="lightblue" points="341.5,-742.257 338,-732.257 334.5,-742.257 341.5,-742.257"/>
</g>
<!-- 188956 -->
<g id="node7" class="node"><title>188956</title>
<ellipse fill="lightblue" stroke="lightblue" cx="338" cy="-988" rx="123.055" ry="60.2083"/>
<text text-anchor="middle" x="338" y="-1018.5" font-family="Times,serif" font-size="10.00">code:wchar_t dataGoodBuffer [ 100 ] ;</text>
<text text-anchor="middle" x="338" y="-1007.5" font-family="Times,serif" font-size="10.00">isCFGNode:True</text>
<text text-anchor="middle" x="338" y="-996.5" font-family="Times,serif" font-size="10.00">childNum:1</text>
<text text-anchor="middle" x="338" y="-985.5" font-family="Times,serif" font-size="10.00">location:4:0:36:67</text>
<text text-anchor="middle" x="338" y="-974.5" font-family="Times,serif" font-size="10.00">id:188956</text>
<text text-anchor="middle" x="338" y="-963.5" font-family="Times,serif" font-size="10.00">type:IdentifierDeclStatement</text>
<text text-anchor="middle" x="338" y="-952.5" font-family="Times,serif" font-size="10.00">functionId:188919</text>
</g>
<!-- 188956&#45;&gt;188952 -->
<g id="edge7" class="edge"><title>188956&#45;&gt;188952</title>
<path fill="none" stroke="lightblue" d="M338,-927.578C338,-918.695 338,-909.47 338,-900.402"/>
<polygon fill="lightblue" stroke="lightblue" points="341.5,-900.257 338,-890.257 334.5,-900.257 341.5,-900.257"/>
</g>
<!-- 188961 -->
<g id="node8" class="node"><title>188961</title>
<ellipse fill="lightblue" stroke="lightblue" cx="338" cy="-1146" rx="95.1892" ry="60.2083"/>
<text text-anchor="middle" x="338" y="-1176.5" font-family="Times,serif" font-size="10.00">code:wchar_t * data ;</text>
<text text-anchor="middle" x="338" y="-1165.5" font-family="Times,serif" font-size="10.00">isCFGNode:True</text>
<text text-anchor="middle" x="338" y="-1154.5" font-family="Times,serif" font-size="10.00">childNum:0</text>
<text text-anchor="middle" x="338" y="-1143.5" font-family="Times,serif" font-size="10.00">location:3:0:19:34</text>
<text text-anchor="middle" x="338" y="-1132.5" font-family="Times,serif" font-size="10.00">id:188961</text>
<text text-anchor="middle" x="338" y="-1121.5" font-family="Times,serif" font-size="10.00">type:IdentifierDeclStatement</text>
<text text-anchor="middle" x="338" y="-1110.5" font-family="Times,serif" font-size="10.00">functionId:188919</text>
</g>
<!-- 188961&#45;&gt;188956 -->
<g id="edge8" class="edge"><title>188961&#45;&gt;188956</title>
<path fill="none" stroke="lightblue" d="M338,-1085.58C338,-1076.69 338,-1067.47 338,-1058.4"/>
<polygon fill="lightblue" stroke="lightblue" points="341.5,-1058.26 338,-1048.26 334.5,-1058.26 341.5,-1058.26"/>
</g>
<!-- 188965 -->
<g id="node9" class="node"><title>188965</title>
<ellipse fill="lightblue" stroke="lightblue" cx="338" cy="-1289" rx="72.1874" ry="44.5955"/>
<text text-anchor="middle" x="338" y="-1308.5" font-family="Times,serif" font-size="10.00">id:188965</text>
<text text-anchor="middle" x="338" y="-1297.5" font-family="Times,serif" font-size="10.00">code:ENTRY</text>
<text text-anchor="middle" x="338" y="-1286.5" font-family="Times,serif" font-size="10.00">type:CFGEntryNode</text>
<text text-anchor="middle" x="338" y="-1275.5" font-family="Times,serif" font-size="10.00">functionId:188919</text>
<text text-anchor="middle" x="338" y="-1264.5" font-family="Times,serif" font-size="10.00">isCFGNode:True</text>
</g>
<!-- 188965&#45;&gt;188961 -->
<g id="edge9" class="edge"><title>188965&#45;&gt;188961</title>
<path fill="none" stroke="lightblue" d="M338,-1244.16C338,-1235.37 338,-1225.94 338,-1216.53"/>
<polygon fill="lightblue" stroke="lightblue" points="341.5,-1216.36 338,-1206.36 334.5,-1216.36 341.5,-1216.36"/>
</g>
</g>
</svg>
